# xmcd CD database file
#
# Track frame offsets:
#	150
#	3485
#	21838
#	41010
#	70783
#	88385
#	107918
#	133620
#	135393
#	162663
#	186188
#	207570
#
# Disc length: 3031 seconds
#
# Revision: 0
# Processed by: cddbd v1.5PL3 Copyright (c) Steve Scherf et al.
# Submitted via: CDex 1.50beta9
#
DISCID=ae0bd50c
DTITLE=Goldbrick - Goldbrick
DYEAR=2003
DGENRE=Heavy Metal
TTITLE0=Introduction
TTITLE1=Striking My Heart
TTITLE2=One By One
TTITLE3=Don't Let Me Down
TTITLE4=Flame Of Love
TTITLE5=Silver Shine
TTITLE6=Never Forget
TTITLE7=Prelude
TTITLE8=Sweet Pain
TTITLE9=Piece Of Heaven
TTITLE10=Groovy Night
TTITLE11=Believe In Love
EXTD=YEAR: 2003
EXTT0=
EXTT1=
EXTT2=
EXTT3=
EXTT4=
EXTT5=
EXTT6=
EXTT7=
EXTT8=
EXTT9=
EXTT10=
EXTT11=
PLAYORDER=
